<?xml version="1.0" encoding="UTF-8"?>
<svg xmlns="http://www.w3.org/2000/svg" xmlns:xlink="http://www.w3.org/1999/xlink" width="416.2pt" height="374.8pt" viewBox="0 0 416.2 374.8" version="1.1">
<defs>
<clipPath id="clip1">
  <path d="M 0 0 L 416.199219 0 L 416.199219 374.800781 L 0 374.800781 Z M 0 0 "/>
</clipPath>
</defs>
<g id="surface1">
<g clip-path="url(#clip1)" clip-rule="nonzero">
<path style=" stroke:none;fill-rule:evenodd;fill:rgb(12.547302%,25.097656%,33.714294%);fill-opacity:1;" d="M 1.53125 0.761719 C 4.292969 -0.0898438 7.261719 0.410156 10.113281 0.289063 C 91.132813 0.300781 172.160156 0.3125 253.179688 0.28125 C 254.578125 0.320313 256.089844 0.261719 257.320313 1.082031 C 258.613281 3.609375 257.953125 6.582031 258.121094 9.3125 C 258.078125 127.640625 258.101563 245.960938 258.113281 364.289063 C 257.921875 367.351563 258.691406 370.660156 257.320313 373.53125 C 256.070313 374.242188 254.589844 374.269531 253.191406 374.3125 C 171.828125 374.300781 90.472656 374.28125 9.113281 374.320313 C 6.382813 374.160156 3.410156 374.800781 0.882813 373.519531 C 0.121094 372.269531 0.121094 370.78125 0.0859375 369.390625 C 0.121094 247.660156 0.078125 125.941406 0.113281 4.21875 C 0.210938 3.03125 0.152344 1.199219 1.53125 0.761719 Z M 37.523438 36.660156 C 36.121094 37.21875 36.183594 38.992188 36.113281 40.230469 C 36.082031 137.949219 36.121094 235.671875 36.089844 333.390625 C 36.140625 334.78125 36.113281 336.269531 36.882813 337.511719 C 38.089844 338.351563 39.613281 338.261719 41.011719 338.320313 C 100.382813 338.25 159.761719 338.371094 219.132813 338.261719 C 221.980469 338.75 222.121094 335.351563 222.113281 333.390625 C 222.070313 235.679688 222.140625 137.972656 222.078125 40.269531 C 222.402344 38.03125 220.320313 36.082031 218.132813 36.332031 C 159.78125 36.160156 101.429688 36.378906 43.082031 36.140625 C 41.230469 36.210938 39.28125 35.96875 37.523438 36.660156 Z M 127.429688 135.582031 C 143.621094 134.0625 160.613281 137.03125 174.3125 146.109375 C 179.828125 149.75 184.890625 154.179688 189.019531 159.359375 C 190.222656 160.652344 190.273438 162.859375 188.746094 163.949219 C 182.679688 169.5625 176.351563 174.890625 170.222656 180.441406 C 168.910156 181.429688 167.210938 183.320313 165.460938 182.152344 C 162.863281 180.019531 160.789063 177.332031 158.183594 175.21875 C 149.441406 167.699219 136.78125 165.902344 125.863281 168.890625 C 117.246094 171.199219 110.402344 178.171875 107.472656 186.492188 C 103.703125 196.972656 103.828125 208.300781 103.820313 219.289063 C 103.992188 229.539063 104.230469 240.21875 108.5625 249.71875 C 111.953125 257.039063 118.652344 262.71875 126.511719 264.679688 C 136.789063 267.210938 148.441406 265.730469 156.960938 259.128906 C 160.089844 256.902344 162.421875 253.78125 165.402344 251.371094 C 166.871094 250.28125 168.511719 251.910156 169.660156 252.769531 C 175.660156 258.082031 181.660156 263.402344 187.691406 268.691406 C 188.882813 269.761719 190.511719 271.121094 189.746094 272.941406 C 188.441406 275.78125 185.890625 277.769531 183.746094 279.960938 C 171.621094 291.621094 154.839844 297.78125 138.140625 298.121094 C 121.640625 298.660156 104.433594 294.550781 91.429688 283.992188 C 80.746094 275.5 73.820313 263.011719 70.613281 249.878906 C 67.410156 236.640625 67.140625 222.902344 67.472656 209.351563 C 67.910156 191.839844 70.992188 173.390625 81.933594 159.160156 C 92.570313 144.921875 109.980469 137 127.429688 135.582031 Z M 301.53125 338.75 C 302.941406 338.121094 304.539063 338.351563 306.039063 338.269531 C 341.421875 338.351563 376.800781 338.261719 412.179688 338.3125 C 414.078125 338.109375 416.230469 339.070313 416.03125 341.289063 C 416.160156 351.289063 416.160156 361.300781 416.03125 371.300781 C 416.230469 373.53125 414.078125 374.46875 412.179688 374.289063 C 376.132813 374.3125 340.070313 374.3125 304.023438 374.289063 C 302.113281 374.46875 299.960938 373.53125 300.171875 371.3125 C 299.972656 361.949219 300.171875 352.582031 300.078125 343.210938 C 300.222656 341.742188 299.851563 339.429688 301.53125 338.75 Z M 301.53125 338.75 "/>
</g>
</g>
</svg>
